<svg id="Layer_1" data-name="Layer 1" xmlns="http://www.w3.org/2000/svg" viewBox="0 0 100 100"><defs><style>.cls-1{fill:#4d6bfe;stroke:#4d6bfe;stroke-miterlimit:10;}</style></defs><path class="cls-1" d="M68.22,67.91c6,6,12.06,11.93,18,18a4.44,4.44,0,0,1,1.24,3.28c-.25,1.59-1.93,1.35-3.22,1.35-8,0-16,.07-23.94-.05a5.6,5.6,0,0,1-3.55-1.44Q41.82,74.25,27.11,59.24c-.62-.63-1.31-2-1-2.49a3.49,3.49,0,0,1,2.6-1.3c7.9-.11,15.81-.08,23.72-.08h2.81c-.65-.81-1-1.25-1.31-1.62Q34,33.77,14,13.77a6,6,0,0,1-1.12-2.15,1,1,0,0,1,.55-1.3A6.67,6.67,0,0,1,16,9.54q19.62-.15,39.25-.06c4.72,0,9.55-.15,14.15.74C80.07,12.31,87.15,21.85,86.92,33A22.7,22.7,0,0,1,68.44,54.64a77.29,77.29,0,0,1-9.65.51l-3.35.14C59.7,59.5,64,63.69,68.22,67.91Z"/></svg>