<?xml version="1.0" encoding="utf-8"?>
<!-- Generator: Adobe Illustrator 26.0.1, SVG Export Plug-In . SVG Version: 6.00 Build 0)  -->
<svg version="1.1" id="Layer_1" xmlns="http://www.w3.org/2000/svg" xmlns:xlink="http://www.w3.org/1999/xlink" x="0px" y="0px"
	 viewBox="0 0 250 100" style="enable-background:new 0 0 250 100;" xml:space="preserve">
<style type="text/css">
	.st0{fill:#4D6BFE;}
	.st1{fill:#0A0F2C;}
	.st2{fill:#FF5003;}
</style>
<g>
	<g>
		<path class="st0" d="M46.9,54.2c3.5,3.4,7,6.9,10.5,10.3c4.9,4.9,9.9,9.8,14.8,14.8c0.7,0.7,1.1,1.7,1,2.7
			c-0.2,1.3-1.6,1.1-2.7,1.1c-6.6,0-13.1,0.1-19.7,0c-1.1,0-2.1-0.5-2.9-1.2c-8.2-8.1-16.3-16.3-24.3-24.4c-0.5-0.5-1.1-1.7-0.8-2.1
			c0.5-0.6,1.3-1,2.1-1.1c6.5-0.1,13-0.1,19.5-0.1h2.3c-0.5-0.7-0.8-1-1.1-1.3C34.7,42,23.7,31,12.8,20.1c-0.4-0.5-0.7-1.1-0.9-1.8
			c-0.2-0.4,0-0.9,0.5-1.1c0.6-0.4,1.4-0.6,2.1-0.7c10.7-0.1,21.5-0.1,32.2,0c3.9,0,7.9-0.1,11.6,0.6c8.8,1.7,14.6,9.5,14.4,18.7
			c-0.3,8.7-6.6,16.1-15.2,17.7c-2.6,0.3-5.3,0.4-7.9,0.4L46.9,54.2L46.9,54.2z"/>
		<path class="st1" d="M178.7,83.3c-0.2,0-0.5,0-0.7,0c-4.5,0-9,0-13.5,0c-2.1,0-2.7-0.7-2.7-2.8c0-8.9,0-17.7,0-26.6v-2.1
			c-1,0.4-1.8,0.6-2.5,1c-4.9,2.5-9.3,5.5-12.4,10.2L135,80.8c-0.4,0.5-0.6,1.3-1.1,1.6c-0.7,0.5-1.5,0.8-2.4,0.8
			c-0.5-0.1-1.2-1.3-1.2-2c-0.1-4.2,0-8.4,0-12.6V19c0-2,0.5-2.6,2.7-2.6c4.1,0,8.3,0,12.4,0c2.8,0,3.3,0.5,3.3,3.3
			c0,12.6,0,25.1,0.3,37.8c0.2-0.4,0.3-0.9,0.5-1.3c2.2-6.4,5-12.5,10.7-16.7c3.8-2.9,8.1-4.2,12.8-2.6c4.4,1.3,7.4,5.4,7.5,10
			c0,5.4,0.1,10.7,0.1,16.1c-1.3,0.3-2.5,0.7-3.6,1.3c-4,2.2-6.2,6.7-5.4,11.2C172.1,79.2,174.9,82.2,178.7,83.3z"/>
		<path class="st1" d="M101.2,63.9c-0.1-0.2-0.3-0.4-0.4-0.6c-1.1,2.1-2.1,4.2-3.1,6.2c-1.4,2.7-2.7,5.4-4.3,7.9
			c-3,4.8-7.6,6.9-12.1,6c-4-0.9-7-4-7.7-8c-0.8-4.5,1.4-9,5.4-11.2c2.1-1,4.3-1.6,6.6-1.7c4.8-0.2,9.7-0.1,14.9-0.1"/>
		<path class="st0" d="M100.5,62.3c-2.3-5-4.4-9.7-6.5-14.4c-1-2.3-2-4.5-3.1-6.7c-0.6-1.1-0.6-2.4-0.1-3.5
			c2.6-6.4,5.2-12.9,7.8-19.3c0.3-0.7,1-1.5,1.6-1.5c0.5,0,1.3,0.8,1.6,1.5c3.8,8.4,7.5,16.9,11.3,25.4
			c5.3,11.9,10.6,23.8,15.9,35.7c0.2,0.3,0.3,0.6,0.4,1c0.6,1.8-0.1,3-2,3c-5.2,0-10.4,0-15.6,0c-1.5,0-2.1-1.1-2.6-2.2
			c-2.6-5.7-5.3-11.5-7.9-17.2"/>
		<path class="st1" d="M199,63.8c-0.1-0.1-0.2-0.3-0.4-0.5c-1.1,2.1-2.1,4.2-3.1,6.2c-1.4,2.7-2.7,5.4-4.3,7.9
			c-3,4.8-7.6,6.9-12.1,6l-0.5-0.1l1.8-20.5c1-0.2,1.9-0.3,2.9-0.4c4.8-0.2,9.7-0.1,14.9-0.1L199,63.8z"/>
		<path class="st0" d="M198.1,62.3c-2.3-5-4.4-9.7-6.5-14.4c-1-2.3-2-4.5-3.1-6.7c-0.6-1.1-0.6-2.4-0.1-3.5
			c2.6-6.4,5.2-12.9,7.8-19.3c0.3-0.7,1-1.5,1.6-1.5c0.6,0,1.3,0.8,1.6,1.5c3.8,8.4,7.5,16.9,11.3,25.4
			c5.3,11.9,10.6,23.8,15.9,35.7c0.2,0.3,0.3,0.6,0.4,1c0.6,1.8-0.1,3-2,3c-5.2,0-10.4,0-15.6,0c-1.6,0-2.1-1.1-2.6-2.2
			c-2.6-5.7-5.3-11.5-7.9-17.2"/>
	</g>
	<circle class="st2" cx="234.2" cy="79.6" r="4"/>
</g>
</svg>
